[center][img]http://img508.imageshack.us/img508/1908/soulsurfer.jpg[/img]



[img]http://leetleech.org/images/48874973695367351744.png[/img]


Format                           : AVI
Format/Info                      : Audio Video Interleave
File size                        : 1.19 GiB
Duration                         : 1h 41mn
Overall bit rate                 : 1 682 Kbps
Writing application              : VirtualDubMod 1.5.10.3 | www.virtualdub-fr.org || (build 2550/release)
Writing library                  : VirtualDubMod build 2550/release

Video
ID                               : 0
Format                           : MPEG-4 Visual
Format profile                   : Advanced Simple@L5
Format settings, BVOP            : Yes
Format settings, QPel            : No
Format settings, GMC             : No warppoints
Format settings, Matrix          : Custom
Codec ID                         : XVID
Codec ID/Hint                    : XviD
Duration                         : 1h 41mn
Bit rate                         : 1 545 Kbps
Width                            : 720 pixels
Height                           : 304 pixels
Display aspect ratio             : 2.35:1
Frame rate                       : 23.976 fps
Color space                      : YUV
Chroma subsampling               : 4:2:0
Bit depth                        : 8 bits
Scan type                        : Progressive
Bits/(Pixel*Frame)               : 0.294
Stream size                      : 1.09 GiB (92%)
Writing library                  : XviD 1.2.1 (UTC 2008-12-04)

Audio
ID                               : 1
Format                           : MPEG Audio
Format version                   : Version 1
Format profile                   : Layer 3
Codec ID                         : 55
Codec ID/Hint                    : MP3
Duration                         : 1h 41mn
Bit rate mode                    : Constant
Bit rate                         : 128 Kbps
Channel(s)                       : 2 channels
Sampling rate                    : 44.1 KHz
Stream size                      : 92.8 MiB (8%)
Alignment                        : Split accross interleaves
Interleave, duration             : 42 ms (1.00 video frame)
Interleave, preload duration     : 500 ms




[url]http://www.imdb.com/title/tt1596346/[/url]




[IMG]http://leetleech.org/images/89524873606771859129.png[/IMG]


Users: 6.1/10 (1,396 votes) 37 reviews | Critics: 43 reviews Metascore: 53/100 (based on 27 reviews from Metacritic.com)

A teenage surfer girl summons the courage to go back into the ocean after losing an arm in a shark attack.
Director:
Sean McNamara
Writers:
Sean McNamara (screenplay), Deborah Schwartz (screenplay), and 12 more credits »
Stars:
AnnaSophia Robb, Dennis Quaid and Helen Hunt




[img]http://leetleech.org/images/95521316153253938506.png[/img]




[img]http://img850.imageshack.us/img850/3279/vlcsnap2011042910h04m03.png[/img]
[img]http://img805.imageshack.us/img805/5403/vlcsnap2011042910h01m52.png[/img]
[img]http://img847.imageshack.us/img847/5174/vlcsnap2011042910h03m20.png[/img]


Source 

LKRG ......................Thanks 

Same nfo as LKRG perfectly decent 1st cam apart from one guy putting his head in the shot now and again .....

Filters i slightly changed the rgb and dropped the saturation a touch and altered the levels .....

Sample included enjoy !




Greetz to Imagine ,Flawl3ss,DiLLoN,BDK,NOiR,TOXiCiNK,THC,Ez,Rx,Boobyblue,TaRiQ786,LKRG





[img]http://img411.imageshack.us/img411/6898/sig1n.jpg[/img]











[/center]